<?xml version="1.0" encoding="UTF-8" standalone="no"?><svg xmlns="http://www.w3.org/2000/svg" xmlns:xlink="http://www.w3.org/1999/xlink" fill="#000000" height="500" preserveAspectRatio="xMidYMid meet" version="1" viewBox="0.0 0.0 100.0 500.0" width="100" zoomAndPan="magnify"><g><g id="change1_1"><path d="M95 5L95 0 5 0 5 5 0 5 0 50 5 50 5 55 10.1 55 10.1 500 15 500 20 500 25 500 30 500 55 500 65 500 80 500 85 500 90 500 90 55 95 55 95 50 100 50 100 10 100 5z" fill="#2e1b5b" opacity="0.25"/></g><g id="change2_1"><path d="M5 5L100 5 100 50 90 50 90 500 15 500 15 50 5 50z" fill="#00db4e"/></g><g id="change1_2"><path d="M5 0H95V5H5z" fill="#2e1b5b" transform="rotate(-180 50 2.5)"/></g><g id="change1_3"><path d="M0 5H5V50H0z" fill="#2e1b5b" transform="rotate(-180 2.5 27.5)"/></g><g id="change1_4"><path d="M10.1 50H15V500H10.1z" fill="#2e1b5b" transform="rotate(-180 12.538 275)"/></g><g id="change1_5"><path d="M5 50H95V55H5z" fill="#2e1b5b" transform="rotate(-180 50 52.5)"/></g><g id="change3_1"><path d="M15 55H20V500H15z" fill="#009200" transform="rotate(-180 17.5 277.5)"/></g><g id="change4_1"><path d="M85 55H90V500H85z" fill="#029316" transform="rotate(-180 87.5 277.5)"/></g><g id="change3_2"><path d="M20 55H25V60H20z" fill="#009200" transform="rotate(-180 22.5 57.5)"/></g><g id="change4_2"><path d="M80 55H85V60H80z" fill="#029316" transform="rotate(-180 82.5 57.5)"/></g><g id="change4_3"><path d="M75 60H80V65H75z" fill="#029316" transform="rotate(-180 77.5 62.5)"/></g><g id="change5_1"><path d="M55 55H65V500H55z" fill="#029316" transform="rotate(-180 60 277.5)"/></g><g id="change4_4"><path d="M75 70H80V75H75z" fill="#029316" transform="rotate(-180 77.5 72.5)"/></g><g id="change4_5"><path d="M75 80H80V85H75z" fill="#029316" transform="rotate(-180 77.5 82.5)"/></g><g id="change4_6"><path d="M75 90H80V95H75z" fill="#029316" transform="rotate(-180 77.5 92.5)"/></g><g id="change4_7"><path d="M75 100H80V105H75z" fill="#029316" transform="rotate(-180 77.5 102.5)"/></g><g id="change4_8"><path d="M75 110H80V115H75z" fill="#029316" transform="rotate(-180 77.5 112.5)"/></g><g id="change4_9"><path d="M75 120H80V125H75z" fill="#029316" transform="rotate(-180 77.5 122.5)"/></g><g id="change4_10"><path d="M75 130H80V135H75z" fill="#029316" transform="rotate(-180 77.5 132.5)"/></g><g id="change4_11"><path d="M75 140H80V145H75z" fill="#029316" transform="rotate(-180 77.5 142.5)"/></g><g id="change4_12"><path d="M75 150H80V155H75z" fill="#029316" transform="rotate(-180 77.5 152.5)"/></g><g id="change4_13"><path d="M75 160H80V165H75z" fill="#029316" transform="rotate(-180 77.5 162.5)"/></g><g id="change4_14"><path d="M75 170H80V175H75z" fill="#029316" transform="rotate(-180 77.5 172.5)"/></g><g id="change4_15"><path d="M75 180H80V185H75z" fill="#029316" transform="rotate(-180 77.5 182.5)"/></g><g id="change4_16"><path d="M75 190H80V195H75z" fill="#029316" transform="rotate(-180 77.5 192.5)"/></g><g id="change4_17"><path d="M75 200H80V205H75z" fill="#029316" transform="rotate(-180 77.5 202.5)"/></g><g id="change4_18"><path d="M75 210H80V215H75z" fill="#029316" transform="rotate(-180 77.5 212.5)"/></g><g id="change4_19"><path d="M75 220H80V225H75z" fill="#029316" transform="rotate(-180 77.5 222.5)"/></g><g id="change4_20"><path d="M75 230H80V235H75z" fill="#029316" transform="rotate(-180 77.5 232.5)"/></g><g id="change4_21"><path d="M75 240H80V245H75z" fill="#029316" transform="rotate(-180 77.5 242.5)"/></g><g id="change4_22"><path d="M75 250H80V255H75z" fill="#029316" transform="rotate(-180 77.5 252.5)"/></g><g id="change4_23"><path d="M75 260H80V265H75z" fill="#029316" transform="rotate(-180 77.5 262.5)"/></g><g id="change4_24"><path d="M75 270H80V275H75z" fill="#029316" transform="rotate(-180 77.5 272.5)"/></g><g id="change4_25"><path d="M75 280H80V285H75z" fill="#029316" transform="rotate(-180 77.5 282.5)"/></g><g id="change4_26"><path d="M75 290H80V295H75z" fill="#029316" transform="rotate(-180 77.5 292.5)"/></g><g id="change4_27"><path d="M75 300H80V305H75z" fill="#029316" transform="rotate(-180 77.5 302.5)"/></g><g id="change4_28"><path d="M75 310H80V315H75z" fill="#029316" transform="rotate(-180 77.5 312.5)"/></g><g id="change4_29"><path d="M75 320H80V325H75z" fill="#029316" transform="rotate(-180 77.5 322.5)"/></g><g id="change4_30"><path d="M75 330H80V335H75z" fill="#029316" transform="rotate(-180 77.5 332.5)"/></g><g id="change4_31"><path d="M75 340H80V345H75z" fill="#029316" transform="rotate(-180 77.5 342.5)"/></g><g id="change4_32"><path d="M75 350H80V355H75z" fill="#029316" transform="rotate(-180 77.5 352.5)"/></g><g id="change4_33"><path d="M75 360H80V365H75z" fill="#029316" transform="rotate(-180 77.5 362.5)"/></g><g id="change4_34"><path d="M75 370H80V375H75z" fill="#029316" transform="rotate(-180 77.5 372.5)"/></g><g id="change4_35"><path d="M75 380H80V385H75z" fill="#029316" transform="rotate(-180 77.5 382.5)"/></g><g id="change4_36"><path d="M75 390H80V395H75z" fill="#029316" transform="rotate(-180 77.5 392.5)"/></g><g id="change4_37"><path d="M75 400H80V405H75z" fill="#029316" transform="rotate(-180 77.5 402.5)"/></g><g id="change4_38"><path d="M75 410H80V415H75z" fill="#029316" transform="rotate(-180 77.5 412.5)"/></g><g id="change4_39"><path d="M75 420H80V425H75z" fill="#029316" transform="rotate(-180 77.5 422.5)"/></g><g id="change4_40"><path d="M75 430H80V435H75z" fill="#029316" transform="rotate(-180 77.5 432.5)"/></g><g id="change4_41"><path d="M75 440H80V445H75z" fill="#029316" transform="rotate(-180 77.5 442.5)"/></g><g id="change4_42"><path d="M75 450H80V455H75z" fill="#029316" transform="rotate(-180 77.5 452.5)"/></g><g id="change4_43"><path d="M75 460H80V465H75z" fill="#029316" transform="rotate(-180 77.5 462.5)"/></g><g id="change4_44"><path d="M75 470H80V475H75z" fill="#029316" transform="rotate(-180 77.5 472.5)"/></g><g id="change4_45"><path d="M75 480H80V485H75z" fill="#029316" transform="rotate(-180 77.5 482.5)"/></g><g id="change4_46"><path d="M75 490H80V495H75z" fill="#029316" transform="rotate(-180 77.5 492.5)"/></g><g id="change4_47"><path d="M80 65H85V70H80z" fill="#029316" transform="rotate(-180 82.5 67.5)"/></g><g id="change4_48"><path d="M80 75H85V80H80z" fill="#029316" transform="rotate(-180 82.5 77.5)"/></g><g id="change4_49"><path d="M80 85H85V90H80z" fill="#029316" transform="rotate(-180 82.5 87.5)"/></g><g id="change4_50"><path d="M80 95H85V100H80z" fill="#029316" transform="rotate(-180 82.5 97.5)"/></g><g id="change4_51"><path d="M80 105H85V110H80z" fill="#029316" transform="rotate(-180 82.5 107.5)"/></g><g id="change4_52"><path d="M80 115H85V120H80z" fill="#029316" transform="rotate(-180 82.5 117.5)"/></g><g id="change4_53"><path d="M80 125H85V130H80z" fill="#029316" transform="rotate(-180 82.5 127.5)"/></g><g id="change4_54"><path d="M80 135H85V140H80z" fill="#029316" transform="rotate(-180 82.5 137.5)"/></g><g id="change4_55"><path d="M80 145H85V150H80z" fill="#029316" transform="rotate(-180 82.5 147.5)"/></g><g id="change4_56"><path d="M80 155H85V160H80z" fill="#029316" transform="rotate(-180 82.5 157.5)"/></g><g id="change4_57"><path d="M80 165H85V170H80z" fill="#029316" transform="rotate(-180 82.5 167.5)"/></g><g id="change4_58"><path d="M80 175H85V180H80z" fill="#029316" transform="rotate(-180 82.5 177.5)"/></g><g id="change4_59"><path d="M80 185H85V190H80z" fill="#029316" transform="rotate(-180 82.5 187.5)"/></g><g id="change4_60"><path d="M80 195H85V200H80z" fill="#029316" transform="rotate(-180 82.5 197.5)"/></g><g id="change4_61"><path d="M80 205H85V210H80z" fill="#029316" transform="rotate(-180 82.5 207.5)"/></g><g id="change4_62"><path d="M80 215H85V220H80z" fill="#029316" transform="rotate(-180 82.5 217.5)"/></g><g id="change4_63"><path d="M80 225H85V230H80z" fill="#029316" transform="rotate(-180 82.5 227.5)"/></g><g id="change4_64"><path d="M80 235H85V240H80z" fill="#029316" transform="rotate(-180 82.5 237.5)"/></g><g id="change4_65"><path d="M80 245H85V250H80z" fill="#029316" transform="rotate(-180 82.5 247.5)"/></g><g id="change4_66"><path d="M80 255H85V260H80z" fill="#029316" transform="rotate(-180 82.5 257.5)"/></g><g id="change4_67"><path d="M80 265H85V270H80z" fill="#029316" transform="rotate(-180 82.5 267.5)"/></g><g id="change4_68"><path d="M80 275H85V280H80z" fill="#029316" transform="rotate(-180 82.5 277.5)"/></g><g id="change4_69"><path d="M80 285H85V290H80z" fill="#029316" transform="rotate(-180 82.5 287.5)"/></g><g id="change4_70"><path d="M80 295H85V300H80z" fill="#029316" transform="rotate(-180 82.5 297.5)"/></g><g id="change4_71"><path d="M80 305H85V310H80z" fill="#029316" transform="rotate(-180 82.5 307.5)"/></g><g id="change4_72"><path d="M80 315H85V320H80z" fill="#029316" transform="rotate(-180 82.5 317.5)"/></g><g id="change4_73"><path d="M80 325H85V330H80z" fill="#029316" transform="rotate(-180 82.5 327.5)"/></g><g id="change4_74"><path d="M80 335H85V340H80z" fill="#029316" transform="rotate(-180 82.5 337.5)"/></g><g id="change4_75"><path d="M80 345H85V350H80z" fill="#029316" transform="rotate(-180 82.5 347.5)"/></g><g id="change4_76"><path d="M80 355H85V360H80z" fill="#029316" transform="rotate(-180 82.5 357.5)"/></g><g id="change4_77"><path d="M80 365H85V370H80z" fill="#029316" transform="rotate(-180 82.5 367.5)"/></g><g id="change4_78"><path d="M80 375H85V380H80z" fill="#029316" transform="rotate(-180 82.5 377.5)"/></g><g id="change4_79"><path d="M80 385H85V390H80z" fill="#029316" transform="rotate(-180 82.5 387.5)"/></g><g id="change4_80"><path d="M80 395H85V400H80z" fill="#029316" transform="rotate(-180 82.5 397.5)"/></g><g id="change4_81"><path d="M80 405H85V410H80z" fill="#029316" transform="rotate(-180 82.5 407.5)"/></g><g id="change4_82"><path d="M80 415H85V420H80z" fill="#029316" transform="rotate(-180 82.5 417.5)"/></g><g id="change4_83"><path d="M80 425H85V430H80z" fill="#029316" transform="rotate(-180 82.5 427.5)"/></g><g id="change4_84"><path d="M80 435H85V440H80z" fill="#029316" transform="rotate(-180 82.5 437.5)"/></g><g id="change4_85"><path d="M80 445H85V450H80z" fill="#029316" transform="rotate(-180 82.5 447.5)"/></g><g id="change4_86"><path d="M80 455H85V460H80z" fill="#029316" transform="rotate(-180 82.5 457.5)"/></g><g id="change4_87"><path d="M80 465H85V470H80z" fill="#029316" transform="rotate(-180 82.5 467.5)"/></g><g id="change4_88"><path d="M80 475H85V480H80z" fill="#029316" transform="rotate(-180 82.5 477.5)"/></g><g id="change4_89"><path d="M80 485H85V490H80z" fill="#029316" transform="rotate(-180 82.5 487.5)"/></g><g id="change4_90"><path d="M80 495H85V500H80z" fill="#029316" transform="rotate(-180 82.5 497.5)"/></g><g id="change3_3"><path d="M20 65H25V70H20z" fill="#009200" transform="rotate(-180 22.5 67.5)"/></g><g id="change3_4"><path d="M20 75H25V80H20z" fill="#009200" transform="rotate(-180 22.5 77.5)"/></g><g id="change3_5"><path d="M20 85H25V90H20z" fill="#009200" transform="rotate(-180 22.5 87.5)"/></g><g id="change3_6"><path d="M20 95H25V100H20z" fill="#009200" transform="rotate(-180 22.5 97.5)"/></g><g id="change3_7"><path d="M20 105H25V110H20z" fill="#009200" transform="rotate(-180 22.5 107.5)"/></g><g id="change3_8"><path d="M20 115H25V120H20z" fill="#009200" transform="rotate(-180 22.5 117.5)"/></g><g id="change3_9"><path d="M20 125H25V130H20z" fill="#009200" transform="rotate(-180 22.5 127.5)"/></g><g id="change3_10"><path d="M20 135H25V140H20z" fill="#009200" transform="rotate(-180 22.5 137.5)"/></g><g id="change3_11"><path d="M20 145H25V150H20z" fill="#009200" transform="rotate(-180 22.5 147.5)"/></g><g id="change3_12"><path d="M20 155H25V160H20z" fill="#009200" transform="rotate(-180 22.5 157.5)"/></g><g id="change3_13"><path d="M20 165H25V170H20z" fill="#009200" transform="rotate(-180 22.5 167.5)"/></g><g id="change3_14"><path d="M20 175H25V180H20z" fill="#009200" transform="rotate(-180 22.5 177.5)"/></g><g id="change3_15"><path d="M20 185H25V190H20z" fill="#009200" transform="rotate(-180 22.5 187.5)"/></g><g id="change3_16"><path d="M20 195H25V200H20z" fill="#009200" transform="rotate(-180 22.5 197.5)"/></g><g id="change3_17"><path d="M20 205H25V210H20z" fill="#009200" transform="rotate(-180 22.5 207.5)"/></g><g id="change3_18"><path d="M20 215H25V220H20z" fill="#009200" transform="rotate(-180 22.5 217.5)"/></g><g id="change3_19"><path d="M20 225H25V230H20z" fill="#009200" transform="rotate(-180 22.5 227.5)"/></g><g id="change3_20"><path d="M20 235H25V240H20z" fill="#009200" transform="rotate(-180 22.5 237.5)"/></g><g id="change3_21"><path d="M20 245H25V250H20z" fill="#009200" transform="rotate(-180 22.5 247.5)"/></g><g id="change3_22"><path d="M20 255H25V260H20z" fill="#009200" transform="rotate(-180 22.5 257.5)"/></g><g id="change3_23"><path d="M20 265H25V270H20z" fill="#009200" transform="rotate(-180 22.5 267.5)"/></g><g id="change3_24"><path d="M20 275H25V280H20z" fill="#009200" transform="rotate(-180 22.5 277.5)"/></g><g id="change3_25"><path d="M20 285H25V290H20z" fill="#009200" transform="rotate(-180 22.5 287.5)"/></g><g id="change3_26"><path d="M20 295H25V300H20z" fill="#009200" transform="rotate(-180 22.5 297.5)"/></g><g id="change3_27"><path d="M20 305H25V310H20z" fill="#009200" transform="rotate(-180 22.5 307.5)"/></g><g id="change3_28"><path d="M20 315H25V320H20z" fill="#009200" transform="rotate(-180 22.5 317.5)"/></g><g id="change3_29"><path d="M20 325H25V330H20z" fill="#009200" transform="rotate(-180 22.5 327.5)"/></g><g id="change3_30"><path d="M20 335H25V340H20z" fill="#009200" transform="rotate(-180 22.5 337.5)"/></g><g id="change3_31"><path d="M20 345H25V350H20z" fill="#009200" transform="rotate(-180 22.5 347.5)"/></g><g id="change3_32"><path d="M20 355H25V360H20z" fill="#009200" transform="rotate(-180 22.5 357.5)"/></g><g id="change3_33"><path d="M20 365H25V370H20z" fill="#009200" transform="rotate(-180 22.5 367.5)"/></g><g id="change3_34"><path d="M20 375H25V380H20z" fill="#009200" transform="rotate(-180 22.5 377.5)"/></g><g id="change3_35"><path d="M20 385H25V390H20z" fill="#009200" transform="rotate(-180 22.5 387.5)"/></g><g id="change3_36"><path d="M20 395H25V400H20z" fill="#009200" transform="rotate(-180 22.5 397.5)"/></g><g id="change3_37"><path d="M20 405H25V410H20z" fill="#009200" transform="rotate(-180 22.5 407.5)"/></g><g id="change3_38"><path d="M20 415H25V420H20z" fill="#009200" transform="rotate(-180 22.5 417.5)"/></g><g id="change3_39"><path d="M20 425H25V430H20z" fill="#009200" transform="rotate(-180 22.5 427.5)"/></g><g id="change3_40"><path d="M20 435H25V440H20z" fill="#009200" transform="rotate(-180 22.5 437.5)"/></g><g id="change3_41"><path d="M20 445H25V450H20z" fill="#009200" transform="rotate(-180 22.5 447.5)"/></g><g id="change3_42"><path d="M20 455H25V460H20z" fill="#009200" transform="rotate(-180 22.5 457.5)"/></g><g id="change3_43"><path d="M20 465H25V470H20z" fill="#009200" transform="rotate(-180 22.5 467.5)"/></g><g id="change3_44"><path d="M20 475H25V480H20z" fill="#009200" transform="rotate(-180 22.5 477.5)"/></g><g id="change3_45"><path d="M20 485H25V490H20z" fill="#009200" transform="rotate(-180 22.5 487.5)"/></g><g id="change3_46"><path d="M20 495H25V500H20z" fill="#009200" transform="rotate(-180 22.5 497.5)"/></g><g id="change3_47"><path d="M25 60H30V65H25z" fill="#009200" opacity="0.5" transform="rotate(-180 27.5 62.5)"/></g><g id="change3_48"><path d="M25 70H30V75H25z" fill="#009200" opacity="0.5" transform="rotate(-180 27.5 72.5)"/></g><g id="change3_49"><path d="M25 80H30V85H25z" fill="#009200" opacity="0.5" transform="rotate(-180 27.5 82.5)"/></g><g id="change3_50"><path d="M25 90H30V95H25z" fill="#009200" opacity="0.5" transform="rotate(-180 27.5 92.5)"/></g><g id="change3_51"><path d="M25 100H30V105H25z" fill="#009200" opacity="0.5" transform="rotate(-180 27.5 102.5)"/></g><g id="change3_52"><path d="M25 110H30V115H25z" fill="#009200" opacity="0.5" transform="rotate(-180 27.5 112.5)"/></g><g id="change3_53"><path d="M25 120H30V125H25z" fill="#009200" opacity="0.5" transform="rotate(-180 27.5 122.5)"/></g><g id="change3_54"><path d="M25 130H30V135H25z" fill="#009200" opacity="0.5" transform="rotate(-180 27.5 132.5)"/></g><g id="change3_55"><path d="M25 140H30V145H25z" fill="#009200" opacity="0.5" transform="rotate(-180 27.5 142.5)"/></g><g id="change3_56"><path d="M25 150H30V155H25z" fill="#009200" opacity="0.5" transform="rotate(-180 27.5 152.5)"/></g><g id="change3_57"><path d="M25 160H30V165H25z" fill="#009200" opacity="0.5" transform="rotate(-180 27.5 162.5)"/></g><g id="change3_58"><path d="M25 170H30V175H25z" fill="#009200" opacity="0.5" transform="rotate(-180 27.5 172.5)"/></g><g id="change3_59"><path d="M25 180H30V185H25z" fill="#009200" opacity="0.5" transform="rotate(-180 27.5 182.5)"/></g><g id="change3_60"><path d="M25 190H30V195H25z" fill="#009200" opacity="0.5" transform="rotate(-180 27.5 192.5)"/></g><g id="change3_61"><path d="M25 200H30V205H25z" fill="#009200" opacity="0.5" transform="rotate(-180 27.5 202.5)"/></g><g id="change3_62"><path d="M25 210H30V215H25z" fill="#009200" opacity="0.5" transform="rotate(-180 27.5 212.5)"/></g><g id="change3_63"><path d="M25 220H30V225H25z" fill="#009200" opacity="0.5" transform="rotate(-180 27.5 222.5)"/></g><g id="change3_64"><path d="M25 230H30V235H25z" fill="#009200" opacity="0.5" transform="rotate(-180 27.5 232.5)"/></g><g id="change3_65"><path d="M25 240H30V245H25z" fill="#009200" opacity="0.5" transform="rotate(-180 27.5 242.5)"/></g><g id="change3_66"><path d="M25 250H30V255H25z" fill="#009200" opacity="0.5" transform="rotate(-180 27.5 252.5)"/></g><g id="change3_67"><path d="M25 260H30V265H25z" fill="#009200" opacity="0.5" transform="rotate(-180 27.5 262.5)"/></g><g id="change3_68"><path d="M25 270H30V275H25z" fill="#009200" opacity="0.5" transform="rotate(-180 27.5 272.5)"/></g><g id="change3_69"><path d="M25 280H30V285H25z" fill="#009200" opacity="0.5" transform="rotate(-180 27.5 282.5)"/></g><g id="change3_70"><path d="M25 290H30V295H25z" fill="#009200" opacity="0.5" transform="rotate(-180 27.5 292.5)"/></g><g id="change3_71"><path d="M25 300H30V305H25z" fill="#009200" opacity="0.5" transform="rotate(-180 27.5 302.5)"/></g><g id="change3_72"><path d="M25 310H30V315H25z" fill="#009200" opacity="0.5" transform="rotate(-180 27.5 312.5)"/></g><g id="change3_73"><path d="M25 320H30V325H25z" fill="#009200" opacity="0.5" transform="rotate(-180 27.5 322.5)"/></g><g id="change3_74"><path d="M25 330H30V335H25z" fill="#009200" opacity="0.5" transform="rotate(-180 27.5 332.5)"/></g><g id="change3_75"><path d="M25 340H30V345H25z" fill="#009200" opacity="0.5" transform="rotate(-180 27.5 342.5)"/></g><g id="change3_76"><path d="M25 350H30V355H25z" fill="#009200" opacity="0.5" transform="rotate(-180 27.5 352.5)"/></g><g id="change3_77"><path d="M25 360H30V365H25z" fill="#009200" opacity="0.5" transform="rotate(-180 27.5 362.5)"/></g><g id="change3_78"><path d="M25 370H30V375H25z" fill="#009200" opacity="0.5" transform="rotate(-180 27.5 372.5)"/></g><g id="change3_79"><path d="M25 380H30V385H25z" fill="#009200" opacity="0.5" transform="rotate(-180 27.5 382.5)"/></g><g id="change3_80"><path d="M25 390H30V395H25z" fill="#009200" opacity="0.5" transform="rotate(-180 27.5 392.5)"/></g><g id="change3_81"><path d="M25 400H30V405H25z" fill="#009200" opacity="0.5" transform="rotate(-180 27.5 402.5)"/></g><g id="change3_82"><path d="M25 410H30V415H25z" fill="#009200" opacity="0.5" transform="rotate(-180 27.5 412.5)"/></g><g id="change3_83"><path d="M25 420H30V425H25z" fill="#009200" opacity="0.5" transform="rotate(-180 27.5 422.5)"/></g><g id="change3_84"><path d="M25 430H30V435H25z" fill="#009200" opacity="0.5" transform="rotate(-180 27.5 432.5)"/></g><g id="change3_85"><path d="M25 440H30V445H25z" fill="#009200" opacity="0.5" transform="rotate(-180 27.5 442.5)"/></g><g id="change3_86"><path d="M25 450H30V455H25z" fill="#009200" opacity="0.5" transform="rotate(-180 27.5 452.5)"/></g><g id="change3_87"><path d="M25 460H30V465H25z" fill="#009200" opacity="0.5" transform="rotate(-180 27.5 462.5)"/></g><g id="change3_88"><path d="M25 470H30V475H25z" fill="#009200" opacity="0.5" transform="rotate(-180 27.5 472.5)"/></g><g id="change3_89"><path d="M25 480H30V485H25z" fill="#009200" opacity="0.5" transform="rotate(-180 27.5 482.5)"/></g><g id="change3_90"><path d="M25 490H30V495H25z" fill="#009200" opacity="0.5" transform="rotate(-180 27.5 492.5)"/></g><g id="change3_91"><path d="M35 490H40V495H35z" fill="#009200" opacity="0.5" transform="rotate(-180 37.5 492.5)"/></g><g id="change3_92"><path d="M35 480H40V485H35z" fill="#009200" opacity="0.5" transform="rotate(-180 37.5 482.5)"/></g><g id="change3_93"><path d="M35 470H40V475H35z" fill="#009200" opacity="0.5" transform="rotate(-180 37.5 472.5)"/></g><g id="change3_94"><path d="M35 460H40V465H35z" fill="#009200" opacity="0.5" transform="rotate(-180 37.5 462.5)"/></g><g id="change3_95"><path d="M35 450H40V455H35z" fill="#009200" opacity="0.5" transform="rotate(-180 37.5 452.5)"/></g><g id="change3_96"><path d="M35 440H40V445H35z" fill="#009200" opacity="0.5" transform="rotate(-180 37.5 442.5)"/></g><g id="change3_97"><path d="M35 430H40V435H35z" fill="#009200" opacity="0.5" transform="rotate(-180 37.5 432.5)"/></g><g id="change3_98"><path d="M35 420H40V425H35z" fill="#009200" opacity="0.5" transform="rotate(-180 37.5 422.5)"/></g><g id="change3_99"><path d="M35 410H40V415H35z" fill="#009200" opacity="0.5" transform="rotate(-180 37.5 412.5)"/></g><g id="change3_100"><path d="M35 400H40V405H35z" fill="#009200" opacity="0.5" transform="rotate(-180 37.5 402.5)"/></g><g id="change3_101"><path d="M35 390H40V395H35z" fill="#009200" opacity="0.5" transform="rotate(-180 37.5 392.5)"/></g><g id="change3_102"><path d="M35 380H40V385H35z" fill="#009200" opacity="0.5" transform="rotate(-180 37.5 382.5)"/></g><g id="change3_103"><path d="M35 370H40V375H35z" fill="#009200" opacity="0.5" transform="rotate(-180 37.5 372.5)"/></g><g id="change3_104"><path d="M35 360H40V365H35z" fill="#009200" opacity="0.5" transform="rotate(-180 37.5 362.5)"/></g><g id="change3_105"><path d="M35 350H40V355H35z" fill="#009200" opacity="0.5" transform="rotate(-180 37.5 352.5)"/></g><g id="change3_106"><path d="M35 340H40V345H35z" fill="#009200" opacity="0.5" transform="rotate(-180 37.5 342.5)"/></g><g id="change3_107"><path d="M35 330H40V335H35z" fill="#009200" opacity="0.5" transform="rotate(-180 37.5 332.5)"/></g><g id="change3_108"><path d="M35 320H40V325H35z" fill="#009200" opacity="0.5" transform="rotate(-180 37.5 322.5)"/></g><g id="change3_109"><path d="M35 310H40V315H35z" fill="#009200" opacity="0.5" transform="rotate(-180 37.5 312.5)"/></g><g id="change3_110"><path d="M35 300H40V305H35z" fill="#009200" opacity="0.5" transform="rotate(-180 37.5 302.5)"/></g><g id="change3_111"><path d="M35 290H40V295H35z" fill="#009200" opacity="0.5" transform="rotate(-180 37.5 292.5)"/></g><g id="change3_112"><path d="M35 280H40V285H35z" fill="#009200" opacity="0.5" transform="rotate(-180 37.5 282.5)"/></g><g id="change3_113"><path d="M35 270H40V275H35z" fill="#009200" opacity="0.5" transform="rotate(-180 37.5 272.5)"/></g><g id="change3_114"><path d="M35 260H40V265H35z" fill="#009200" opacity="0.5" transform="rotate(-180 37.5 262.5)"/></g><g id="change3_115"><path d="M35 250H40V255H35z" fill="#009200" opacity="0.5" transform="rotate(-180 37.5 252.5)"/></g><g id="change3_116"><path d="M35 240H40V245H35z" fill="#009200" opacity="0.5" transform="rotate(-180 37.5 242.5)"/></g><g id="change3_117"><path d="M35 230H40V235H35z" fill="#009200" opacity="0.5" transform="rotate(-180 37.5 232.5)"/></g><g id="change3_118"><path d="M35 220H40V225H35z" fill="#009200" opacity="0.5" transform="rotate(-180 37.5 222.5)"/></g><g id="change3_119"><path d="M35 210H40V215H35z" fill="#009200" opacity="0.5" transform="rotate(-180 37.5 212.5)"/></g><g id="change3_120"><path d="M35 200H40V205H35z" fill="#009200" opacity="0.5" transform="rotate(-180 37.5 202.5)"/></g><g id="change3_121"><path d="M35 190H40V195H35z" fill="#009200" opacity="0.5" transform="rotate(-180 37.5 192.5)"/></g><g id="change3_122"><path d="M35 180H40V185H35z" fill="#009200" opacity="0.5" transform="rotate(-180 37.5 182.5)"/></g><g id="change3_123"><path d="M35 170H40V175H35z" fill="#009200" opacity="0.5" transform="rotate(-180 37.5 172.5)"/></g><g id="change3_124"><path d="M35 160H40V165H35z" fill="#009200" opacity="0.5" transform="rotate(-180 37.5 162.5)"/></g><g id="change3_125"><path d="M35 150H40V155H35z" fill="#009200" opacity="0.5" transform="rotate(-180 37.5 152.5)"/></g><g id="change3_126"><path d="M35 140H40V145H35z" fill="#009200" opacity="0.5" transform="rotate(-180 37.5 142.5)"/></g><g id="change3_127"><path d="M35 130H40V135H35z" fill="#009200" opacity="0.5" transform="rotate(-180 37.5 132.5)"/></g><g id="change3_128"><path d="M35 120H40V125H35z" fill="#009200" opacity="0.5" transform="rotate(-180 37.5 122.5)"/></g><g id="change3_129"><path d="M35 110H40V115H35z" fill="#009200" opacity="0.5" transform="rotate(-180 37.5 112.5)"/></g><g id="change3_130"><path d="M35 100H40V105H35z" fill="#009200" opacity="0.5" transform="rotate(-180 37.5 102.5)"/></g><g id="change3_131"><path d="M35 90H40V95H35z" fill="#009200" opacity="0.5" transform="rotate(-180 37.5 92.5)"/></g><g id="change3_132"><path d="M35 80H40V85H35z" fill="#009200" opacity="0.5" transform="rotate(-180 37.5 82.5)"/></g><g id="change3_133"><path d="M35 70H40V75H35z" fill="#009200" opacity="0.5" transform="rotate(-180 37.5 72.5)"/></g><g id="change3_134"><path d="M35 60H40V65H35z" fill="#009200" opacity="0.5" transform="rotate(-180 37.5 62.5)"/></g><g id="change4_91"><path d="M95 10H100V50H95z" fill="#029316" transform="rotate(-180 97.5 30)"/></g><g id="change4_92"><path d="M85 10H90V15H85z" fill="#029316" transform="rotate(-180 87.5 12.5)"/></g><g id="change4_93"><path d="M85 20H90V25H85z" fill="#029316" transform="rotate(-180 87.5 22.5)"/></g><g id="change4_94"><path d="M85 30H90V35H85z" fill="#029316" transform="rotate(-180 87.5 32.5)"/></g><g id="change4_95"><path d="M85 40H90V45H85z" fill="#029316" transform="rotate(-180 87.5 42.5)"/></g><g id="change4_96"><path d="M90 15H95V20H90z" fill="#029316" transform="rotate(-180 92.5 17.5)"/></g><g id="change4_97"><path d="M90 25H95V30H90z" fill="#029316" transform="rotate(-180 92.5 27.5)"/></g><g id="change4_98"><path d="M90 35H95V40H90z" fill="#029316" transform="rotate(-180 92.5 37.5)"/></g><g id="change4_99"><path d="M90 45H95V50H90z" fill="#029316" transform="rotate(-180 92.5 47.5)"/></g><g id="change3_135"><path d="M20 15H25V20H20z" fill="#009200" opacity="0.5" transform="rotate(-180 22.5 17.5)"/></g><g id="change3_136"><path d="M20 25H25V30H20z" fill="#009200" opacity="0.5" transform="rotate(-180 22.5 27.5)"/></g><g id="change3_137"><path d="M20 35H25V40H20z" fill="#009200" opacity="0.5" transform="rotate(-180 22.5 37.5)"/></g><g id="change3_138"><path d="M20 45H25V50H20z" fill="#009200" opacity="0.5" transform="rotate(-180 22.5 47.5)"/></g><g id="change3_139"><path d="M30 45H35V50H30z" fill="#009200" opacity="0.5" transform="rotate(-180 32.5 47.5)"/></g><g id="change3_140"><path d="M30 35H35V40H30z" fill="#009200" opacity="0.5" transform="rotate(-180 32.5 37.5)"/></g><g id="change3_141"><path d="M30 25H35V30H30z" fill="#009200" opacity="0.5" transform="rotate(-180 32.5 27.5)"/></g><g id="change3_142"><path d="M30 15H35V20H30z" fill="#009200" opacity="0.5" transform="rotate(-180 32.5 17.5)"/></g><g id="change5_2"><path d="M25 5L55 5 70 5 85 5 85 10 70 10 70 50 55 50 55 10 25 10z" fill="#029316"/></g><g id="change3_143"><path d="M15 5L15 10 20 10 20 15 15 15 15 20 20 20 20 25 15 25 15 30 20 30 20 35 15 35 15 40 20 40 20 45 15 45 15 50 5 50 5 15 5 10 5 5z" fill="#009200"/></g><g id="change1_6"><path d="M5 5H25V50H5z" fill="#2e1b5b" opacity="0.3" transform="rotate(-180 15 27.5)"/></g><g id="change1_7"><path d="M15 55H30V500H15z" fill="#2e1b5b" opacity="0.25" transform="rotate(-180 22.5 277.5)"/></g></g></svg>