<?xml version="1.0" encoding="UTF-8"?><svg xmlns="http://www.w3.org/2000/svg" xmlns:xlink="http://www.w3.org/1999/xlink" height="90.0" preserveAspectRatio="xMidYMid meet" version="1.0" viewBox="0.0 0.0 370.0 90.0" width="370.0" zoomAndPan="magnify"><g><g id="change1_1"><path d="M365 70L365 65 360 65 360 60 355 60 355 55 340 55 340 60 335 60 335 65 330 65 330 60 335 60 335 50 330 50 330 45 325 45 325 40 315 40 315 45 305 45 305 40 300 40 300 35 275 35 275 40 270 40 270 45 265 45 265 50 250 50 250 55 245 55 240 55 240 50 235 50 235 45 235 40 240 40 240 35 240 30 235 30 235 25 230 25 230 20 225 20 225 15 205 15 205 10 200 10 200 5 195 5 195 0 165 0 165 5 160 5 160 10 155 10 155 15 155 20 145 20 145 25 140 25 140 30 135 30 135 35 130 35 130 40 130 45 135 45 135 50 140 50 140 55 135 55 135 60 135 65 130 65 130 60 120 60 120 55 115 55 115 50 115 45 120 45 120 40 120 35 115 35 115 30 115 25 110 25 110 20 100 20 100 15 80 15 80 20 70 20 70 25 60 25 60 30 55 30 55 35 50 35 50 40 40 40 40 45 35 45 35 50 15 50 15 55 10 55 10 60 5 60 5 65 5 70 5 75 0 75 0 80 0 85 5 85 5 90 365 90 365 85 370 85 370 80 370 75 370 70z" fill="#BFEBF4"/></g><g fill="#7C9AE0" id="change2_1"><path d="M70 40L65 40 65 30 70 30 70 25 65 25 60 25 60 40 60 45 65 45 65 50 70 50 70 45z"/><path d="M70 50H75V55H70z"/><path d="M75 45H85V50H75z"/><path d="M85 40H95V45H85z"/><path d="M95 45H100V50H95z"/><path d="M35 50H40V55H35z"/><path d="M30 55H35V60H30z"/><path d="M25 60H30V65H25z"/><path d="M30 65H35V75H30z"/><path d="M45 70H50V75H45z"/><path d="M50 65H55V70H50z"/><path d="M70 60L70 55 65 55 65 60 55 60 55 65 70 65z"/><path d="M70 65H75V70H70z"/><path d="M75 70H80V75H75z"/><path d="M95 60H105V65H95z"/><path d="M105 55H120V60H105z"/><path d="M130 65H135V70H130z"/><path d="M165 25H170V30H165z"/><path d="M10 55H15V60H10z"/><path d="M15 50H25V55H15z"/><path d="M195 65H200V70H195z"/><path d="M180 50H185V55H180z"/><path d="M175 40H180V50H175z"/><path d="M180 30H185V40H180z"/><path d="M185 25H190V30H185z"/><path d="M190 20H200V25H190z"/><path d="M200 15H210V20H200z"/><path d="M190 50H195V55H190z"/><path d="M195 45H200V50H195z"/><path d="M200 40H215V45H200z"/><path d="M215 45H220V50H215z"/><path d="M220 65H225V70H220z"/><path d="M225 60H235V65H225z"/><path d="M235 55H245V60H235z"/><path d="M335 85L335 80 330 80 330 70 325 70 325 80 325 85 285 85 285 80 280 80 280 75 280 70 275 70 265 70 265 75 270 75 270 80 260 80 260 85 225 85 225 80 220 80 220 75 220 70 215 70 215 75 210 75 210 80 205 80 205 85 175 85 175 80 170 80 170 75 175 75 175 70 180 70 180 65 185 65 190 65 195 65 195 60 190 60 190 55 185 55 185 60 180 60 175 60 175 65 170 65 170 70 160 70 160 60 155 60 155 55 155 45 140 45 140 35 145 35 145 30 150 30 150 25 165 25 165 20 165 10 170 10 170 5 175 5 180 5 180 0 175 0 165 0 165 5 160 5 160 10 155 10 155 20 150 20 145 20 145 25 140 25 140 30 135 30 135 35 130 35 130 45 135 45 135 50 140 50 140 55 135 55 135 60 135 65 145 65 145 60 150 60 150 70 155 70 155 80 160 80 160 85 135 85 135 80 130 80 130 75 130 70 125 70 125 75 120 75 120 85 100 85 100 80 95 80 95 75 95 65 90 65 90 75 85 75 85 80 85 85 50 85 50 80 45 80 45 75 35 75 35 80 40 80 40 85 15 85 15 80 10 80 10 75 15 75 15 70 10 70 10 60 5 60 5 75 0 75 0 85 5 85 5 90 45 90 90 90 95 90 120 90 160 90 165 90 170 90 175 90 205 90 210 90 220 90 225 90 365 90 365 85z"/><path d="M70 20H75V25H70z"/><path d="M270 50L270 45 265 45 265 50 265 55 270 55z"/><path d="M260 55H265V70H260z"/><path d="M280 65H285V70H280z"/><path d="M300 60L300 55 295 55 295 60 285 60 285 65 300 65z"/><path d="M300 65H305V70H300z"/><path d="M330 65H335V70H330z"/><path d="M300 50H305V55H300z"/><path d="M305 45H315V50H305z"/><path d="M270 40H275V45H270z"/></g><g fill="#D8BBFF" id="change3_1"><path d="M75 20H80V25H75z"/><path d="M85 45L85 40 80 40 80 35 75 35 75 30 75 25 70 25 70 30 65 30 65 40 70 40 70 45 70 50 75 50 75 45z"/><path d="M85 35H95V40H85z"/><path d="M70 55H75V65H70z"/><path d="M75 50H85V55H75z"/><path d="M75 65L75 70 80 70 80 75 90 75 90 65 80 65z"/><path d="M90 60H95V65H90z"/><path d="M55 75L60 75 60 70 65 70 65 65 60 65 55 65 55 70 50 70 50 75 45 75 45 80 50 80 50 85 55 85 85 85 85 80 55 80z"/><path d="M100 80H120V85H100z"/><path d="M175 80H205V85H175z"/><path d="M10 75L10 80 15 80 15 85 40 85 40 80 20 80 20 70 15 70 15 75z"/><path d="M10 60H15V70H10z"/><path d="M15 55H25V60H15z"/><path d="M25 50H35V55H25z"/><path d="M150 25H165V30H150z"/><path d="M150 40L150 35 150 30 145 30 145 35 140 35 140 40 140 45 145 45 155 45 155 40z"/><path d="M165 55L160 55 160 45 155 45 155 60 160 60 160 65 160 70 170 70 170 65 165 65z"/><path d="M170 60H175V65H170z"/><path d="M95 65L95 80 100 80 100 70 105 70 105 65 100 65z"/><path d="M105 60H120V65H105z"/><path d="M165 50H170V55H165z"/><path d="M140 75L135 75 135 80 135 85 160 85 160 80 140 80z"/><path d="M115 70H120V75H115z"/><path d="M95 30H100V35H95z"/><path d="M100 40H105V45H100z"/><path d="M95 55H100V60H95z"/><path d="M50 70L50 65 45 65 40 65 40 55 35 55 35 60 30 60 30 65 35 65 35 70 35 75 40 75 45 75 45 70z"/><path d="M50 60H55V65H50z"/><path d="M180 40H185V50H180z"/><path d="M185 50H190V55H185z"/><path d="M230 75L230 70 235 70 235 65 230 65 225 65 225 70 220 70 220 80 225 80 225 75z"/><path d="M260 75L260 80 270 80 270 75 265 75 265 70 260 70z"/><path d="M235 75L230 75 230 80 225 80 225 85 260 85 260 80 235 80z"/><path d="M180 70H185V75H180z"/><path d="M190 55H195V60H190z"/><path d="M195 60H200V65H195z"/><path d="M195 50H200V55H195z"/><path d="M275 35H280V45H275z"/><path d="M270 45H275V55H270z"/><path d="M270 65L270 55 265 55 265 65 265 70 270 70 280 70 280 65z"/><path d="M280 60H285V65H280z"/><path d="M285 55H295V60H285z"/><path d="M280 70H285V80H280z"/><path d="M280 50H285V55H280z"/><path d="M295 50H300V55H295z"/><path d="M255 55H260V60H255z"/><path d="M320 80L285 80 285 85 325 85 325 80 325 70 320 70z"/><path d="M315 65H320V70H315z"/><path d="M340 65L335 65 335 70 330 70 330 80 335 80 335 85 340 85 365 85 365 80 340 80z"/><path d="M365 70H370V80H365z"/><path d="M165 10H170V25H165z"/><path d="M170 5H180V10H170z"/><path d="M185 30H190V40H185z"/><path d="M190 25H195V30H190z"/><path d="M200 20H205V25H200z"/><path d="M50 35H55V40H50z"/><path d="M35 45H40V50H35z"/><path d="M40 40H50V45H40z"/></g><g fill="#F2FCFC" id="change4_1"><path d="M110 25L110 20 100 20 100 15 80 15 80 20 95 20 95 25 100 25 105 25 105 30 110 30 110 35 115 35 115 25z"/><path d="M115 35H120V45H115z"/><path d="M110 45H115V55H110z"/><path d="M65 55L70 55 70 50 65 50 65 45 60 45 60 55 55 55 55 60 60 60 65 60z"/><path d="M85 45H95V50H85z"/><path d="M120 60H130V65H120z"/><path d="M145 60H150V65H145z"/><path d="M135 65H145V70H135z"/><path d="M105 40H110V45H105z"/><path d="M90 25H95V30H90z"/><path d="M195 5H200V10H195z"/><path d="M200 10H205V15H200z"/><path d="M195 15H200V20H195z"/><path d="M180 0H195V5H180z"/><path d="M210 15H225V20H210z"/><path d="M225 20H230V25H225z"/><path d="M220 25H225V30H220z"/><path d="M230 25H235V30H230z"/><path d="M235 30H240V40H235z"/><path d="M230 40H235V50H230z"/><path d="M235 50H240V55H235z"/><path d="M225 35H230V40H225z"/><path d="M200 45H215V50H200z"/><path d="M215 50H220V55H215z"/><path d="M250 50H265V55H250z"/><path d="M220 60H225V65H220z"/><path d="M215 30H220V35H215z"/><path d="M280 35H300V40H280z"/><path d="M300 40H305V45H300z"/><path d="M295 45H300V50H295z"/><path d="M315 40H325V45H315z"/><path d="M325 45H330V50H325z"/><path d="M330 50H335V60H330z"/><path d="M320 50H325V55H320z"/><path d="M315 70H320V75H315z"/><path d="M305 55H310V60H305z"/><path d="M185 20H190V25H185z"/><path d="M180 15H185V20H180z"/><path d="M335 60H340V65H335z"/><path d="M340 55H355V60H340z"/><path d="M355 60H360V65H355z"/><path d="M360 65H365V70H360z"/><path d="M355 70H360V75H355z"/><path d="M345 65H350V70H345z"/><path d="M245 60H250V65H245z"/><path d="M55 30H60V35H55z"/><path d="M65 65H70V70H65z"/><path d="M70 70H75V75H70z"/><path d="M25 55H30V60H25z"/><path d="M90 55H95V60H90z"/><path d="M85 60H90V65H85z"/><path d="M180 55H185V60H180z"/><path d="M170 40H175V50H170z"/><path d="M165 35H170V40H165z"/><path d="M175 30H180V35H175z"/><path d="M205 75H210V80H205z"/><path d="M210 65H220V70H210z"/><path d="M205 60H210V65H205z"/><path d="M255 75H260V80H255z"/></g></g></svg>